<svg xmlns="http://www.w3.org/2000/svg" xmlns:xlink="http://www.w3.org/1999/xlink" fill="none" version="1.1" width="105" height="110" viewBox="0 0 105 110"><defs><filter id="master_svg0_2_2174" filterUnits="objectBoundingBox" color-interpolation-filters="sRGB" x="-0.6862745098039216" y="-0.375" width="2.0588235294117645" height="1.9642857142857142"><feFlood flood-opacity="0" result="BackgroundImageFix"/><feColorMatrix in="SourceAlpha" type="matrix" values="0 0 0 0 0 0 0 0 0 0 0 0 0 0 0 0 0 0 127 0"/><feMorphology radius="-4" operator="dilate" in="SourceAlpha" result="effect1_dropShadow"/><feOffset dy="4" dx="0"/><feGaussianBlur stdDeviation="3"/><feColorMatrix type="matrix" values="0 0 0 0 0 0 0 0 0 0 0 0 0 0 0 0 0 0 0.10000000149011612 0"/><feBlend mode="normal" in2="BackgroundImageFix" result="effect1_dropShadow"/><feColorMatrix in="SourceAlpha" type="matrix" values="0 0 0 0 0 0 0 0 0 0 0 0 0 0 0 0 0 0 127 0"/><feMorphology radius="-3" operator="dilate" in="SourceAlpha" result="effect2_dropShadow"/><feOffset dy="10" dx="0"/><feGaussianBlur stdDeviation="7.5"/><feColorMatrix type="matrix" values="0 0 0 0 0 0 0 0 0 0 0 0 0 0 0 0 0 0 0.10000000149011612 0"/><feBlend mode="normal" in2="effect1_dropShadow" result="effect2_dropShadow"/><feBlend mode="normal" in="SourceGraphic" in2="effect2_dropShadow" result="shape"/></filter><clipPath id="master_svg1_2_2174"><rect x="27" y="17" width="51" height="56" rx="6"/></clipPath><clipPath id="master_svg2_2_1332"><rect x="39" y="33" width="25.59375" height="24" rx="0"/></clipPath></defs><g filter="url(#master_svg0_2_2174)"><g clip-path="url(#master_svg1_2_2174)"><rect x="27" y="17" width="51" height="56" rx="6" fill="#000000" fill-opacity="1" style="mix-blend-mode:passthrough"/><rect x="27" y="17" width="51" height="56" rx="6" fill="#000000" fill-opacity="0.0010000000474974513" style="mix-blend-mode:passthrough"/><g><rect x="39" y="29" width="27" height="32" rx="0" fill="#000000" fill-opacity="0" style="mix-blend-mode:passthrough"/><g clip-path="url(#master_svg2_2_1332)"><g transform="matrix(1,0,0,-1,0,115.03125)"><g><path d="M53.3906,64.312505Q55.4062,64.640625,56.5781,66.328125L64.125,78.046825Q64.5938,78.750025,64.5,79.546825Q64.3594,80.343725,63.7969,80.906225Q63.1406,81.468725,62.3438,81.515625Q61.5938,81.562525,60.8906,81.046825L49.7812,72.750025Q48.04688,71.390625,48,69.187525L53.3906,64.312505ZM52.5,63.093745L47.0625,68.015625L52.5,63.093745L47.0625,68.015625Q44.90625,67.875025,43.45312,66.421875Q42.04688,64.921875,42,62.765625Q42,62.484375,42.04688,62.203125Q42.09375,61.593745,41.71875,61.078125Q41.34375,60.562505,40.73438,60.515625L40.5,60.515625Q39.84375,60.515625,39.421875,60.093745Q39,59.671875,39,59.015625Q39,58.359375,39.421875,57.9375Q39.84375,57.515625,40.5,57.515625L47.25,57.515625Q49.5,57.5625,50.9531,59.062505Q52.4531,60.515625,52.5,62.765625Q52.5,62.859375,52.5,62.953125Q52.5,63.046875,52.5,63.093745Z" fill="#FFFFFF" fill-opacity="1" style="mix-blend-mode:passthrough"/></g></g></g></g></g></g></svg>