<svg xmlns="http://www.w3.org/2000/svg" xmlns:xlink="http://www.w3.org/1999/xlink" fill="none" version="1.1" width="48" height="48" viewBox="0 0 48 48"><defs><clipPath id="master_svg0_2_1267"><rect x="14.1015625" y="14" width="19.796875" height="20" rx="0"/></clipPath></defs><g><rect x="0" y="0" width="48" height="48" rx="24" fill="#000000" fill-opacity="1" style="mix-blend-mode:passthrough"/><g><rect x="14" y="10" width="20" height="28" rx="0" fill="#000000" fill-opacity="0" style="mix-blend-mode:passthrough"/><g clip-path="url(#master_svg0_2_1267)"><g transform="matrix(1,0,0,-1,0,68.85937881469727)"><g><path d="M32.5317625,53.57028940734863Q31.8289625,54.23438940734863,30.9698625,54.23438940734863Q30.1108625,54.23438940734863,29.4080625,53.57028940734863L28.236562499999998,52.398489407348634L32.0632625,48.57028940734863L33.2346625,49.74218940734863Q33.8984625,50.44528940734863,33.8984625,51.30468940734863Q33.8984625,52.164089407348634,33.2346625,52.86718940734863L32.5317625,53.57028940734863ZM20.8176625,44.976589407348634Q20.4662425,44.624989407348636,20.3100525,44.11718940734863L19.1386425,40.67968940734863Q18.9824525,40.13280940734863,19.3729225,39.703129407348634Q19.802442499999998,39.31249940734863,20.3490925,39.46874940734863L23.8242925,40.640629407348634Q24.2928625,40.796879407348634,24.6442625,41.14843940734863L31.2041625,47.71088940734863L27.3775625,51.539089407348634L20.8176625,44.976589407348634ZM17.8500825,51.92968940734863Q16.2491525,51.89058940734863,15.1948825,50.83588940734863Q14.1406096,49.78128940734863,14.1015625,48.17968940734863L14.1015625,38.17968940734863Q14.1406096,36.578129407348634,15.1948825,35.52343940734863Q16.2491525,34.46875190734863,17.8500825,34.42968940734863L27.8461625,34.42968940734863Q29.4470625,34.46875190734863,30.5013625,35.52343940734863Q31.5556625,36.578129407348634,31.5946625,38.17968940734863L31.5946625,41.92968940734863Q31.5946625,42.476569407348634,31.2432625,42.828129407348634Q30.8917625,43.17968940734863,30.3451625,43.17968940734863Q29.7984625,43.17968940734863,29.4470625,42.828129407348634Q29.0956625,42.476569407348634,29.0956625,41.92968940734863L29.0956625,38.17968940734863Q29.0956625,37.63280940734863,28.744262499999998,37.28124940734863Q28.3927625,36.92968940734863,27.8461625,36.92968940734863L17.8500825,36.92968940734863Q17.3034225,36.92968940734863,16.9520025,37.28124940734863Q16.6005725,37.63280940734863,16.6005725,38.17968940734863L16.6005725,48.17968940734863Q16.6005725,48.726589407348634,16.9520025,49.078089407348635Q17.3034225,49.42968940734863,17.8500825,49.42968940734863L21.5986025,49.42968940734863Q22.1452625,49.42968940734863,22.4966825,49.78128940734863Q22.8481125,50.13278940734863,22.8481125,50.67968940734863Q22.8481125,51.226589407348634,22.4966825,51.57808940734863Q22.1452625,51.92968940734863,21.5986025,51.92968940734863L17.8500825,51.92968940734863Z" fill="#FFFFFF" fill-opacity="1" style="mix-blend-mode:passthrough"/></g></g></g></g></g></svg>