<svg xmlns="http://www.w3.org/2000/svg" xmlns:xlink="http://www.w3.org/1999/xlink" fill="none" version="1.1" width="96" height="110" viewBox="0 0 96 110"><defs><filter id="master_svg0_2_2210" filterUnits="objectBoundingBox" color-interpolation-filters="sRGB" x="-0.8333333333333334" y="-0.375" width="2.2857142857142856" height="1.9642857142857142"><feFlood flood-opacity="0" result="BackgroundImageFix"/><feColorMatrix in="SourceAlpha" type="matrix" values="0 0 0 0 0 0 0 0 0 0 0 0 0 0 0 0 0 0 127 0"/><feMorphology radius="-4" operator="dilate" in="SourceAlpha" result="effect1_dropShadow"/><feOffset dy="4" dx="0"/><feGaussianBlur stdDeviation="3"/><feColorMatrix type="matrix" values="0 0 0 0 0 0 0 0 0 0 0 0 0 0 0 0 0 0 0.10000000149011612 0"/><feBlend mode="normal" in2="BackgroundImageFix" result="effect1_dropShadow"/><feColorMatrix in="SourceAlpha" type="matrix" values="0 0 0 0 0 0 0 0 0 0 0 0 0 0 0 0 0 0 127 0"/><feMorphology radius="-3" operator="dilate" in="SourceAlpha" result="effect2_dropShadow"/><feOffset dy="10" dx="0"/><feGaussianBlur stdDeviation="7.5"/><feColorMatrix type="matrix" values="0 0 0 0 0 0 0 0 0 0 0 0 0 0 0 0 0 0 0.10000000149011612 0"/><feBlend mode="normal" in2="effect1_dropShadow" result="effect2_dropShadow"/><feBlend mode="normal" in="SourceGraphic" in2="effect2_dropShadow" result="shape"/></filter><clipPath id="master_svg1_2_2210"><rect x="27" y="17" width="42" height="56" rx="6"/></clipPath><clipPath id="master_svg2_2_1342"><rect x="39" y="33" width="16.5" height="24" rx="0"/></clipPath></defs><g filter="url(#master_svg0_2_2210)"><g clip-path="url(#master_svg1_2_2210)"><rect x="27" y="17" width="42" height="56" rx="6" fill="#000000" fill-opacity="1" style="mix-blend-mode:passthrough"/><rect x="27" y="17" width="42" height="56" rx="6" fill="#000000" fill-opacity="0.0010000000474974513" style="mix-blend-mode:passthrough"/><g><rect x="39" y="29" width="18" height="32" rx="0" fill="#000000" fill-opacity="0" style="mix-blend-mode:passthrough"/><g clip-path="url(#master_svg2_2_1342)"><g transform="matrix(1,0,0,-1,0,115.03125)"><g><path d="M39,78.515625Q39.046875,79.781225,39.890625,80.625025Q40.73438,81.468725,42,81.515625L52.5,81.515625Q53.7656,81.468725,54.6094,80.625025Q55.4531,79.781225,55.5,78.515625L55.5,60.515625Q55.4531,59.250005,54.6094,58.40625Q53.7656,57.5625,52.5,57.515625L42,57.515625Q40.73438,57.5625,39.890625,58.40625Q39.046875,59.250005,39,60.515625L39,78.515625ZM48.75,60.515625Q48.75,61.171875,48.32812,61.593745Q47.90625,62.015625,47.25,62.015625Q46.59375,62.015625,46.17188,61.593745Q45.75,61.171875,45.75,60.515625Q45.75,59.859375,46.17188,59.437505Q46.59375,59.015625,47.25,59.015625Q47.90625,59.015625,48.32812,59.437505Q48.75,59.859375,48.75,60.515625ZM52.5,78.515625L42,78.515625L52.5,78.515625L42,78.515625L42,63.515625L52.5,63.515625L52.5,78.515625Z" fill="#FFFFFF" fill-opacity="1" style="mix-blend-mode:passthrough"/></g></g></g></g></g></g></svg>