<svg xmlns="http://www.w3.org/2000/svg" xmlns:xlink="http://www.w3.org/1999/xlink" fill="none" version="1.1" width="48" height="48" viewBox="0 0 48 48"><defs><clipPath id="master_svg0_2_1272"><rect x="14" y="14" width="20" height="20" rx="0"/></clipPath></defs><g><rect x="0" y="0" width="48" height="48" rx="24" fill="#000000" fill-opacity="1" style="mix-blend-mode:passthrough"/><g><rect x="14" y="10" width="20" height="28" rx="0" fill="#000000" fill-opacity="0" style="mix-blend-mode:passthrough"/><g clip-path="url(#master_svg0_2_1272)"><g transform="matrix(1,0,0,-1,0,68.859375)"><g><path d="M25.25,53.1796875Q25.25,53.7265875,24.898400000000002,54.078087499999995Q24.5469,54.4296875,24,54.4296875Q23.45312,54.4296875,23.10156,54.078087499999995Q22.75,53.7265875,22.75,53.1796875L22.75,43.6874975L19.89844,46.5780875Q19.50781,46.9296875,19,46.9296875Q18.49219,46.9296875,18.10156,46.5780875Q17.75,46.1874875,17.75,45.6796875Q17.75,45.1718875,18.10156,44.7812875L23.10156,39.7812475Q23.49219,39.4296875,24,39.4296875Q24.5078,39.4296875,24.898400000000002,39.7812475L29.898400000000002,44.7812875Q30.25,45.1718875,30.25,45.6796875Q30.25,46.1874875,29.898400000000002,46.5780875Q29.5078,46.9296875,29,46.9296875Q28.4922,46.9296875,28.101599999999998,46.5780875L25.25,43.6874975L25.25,53.1796875ZM16.5,40.6796875Q15.44531,40.6406275,14.742188,39.9374975Q14.0390625,39.2343775,14,38.1796875L14,36.9296875Q14.0390625,35.8749975,14.742188,35.1718755Q15.44531,34.46875,16.5,34.4296875L31.5,34.4296875Q32.5547,34.46875,33.2578,35.1718755Q33.960899999999995,35.8749975,34,36.9296875L34,38.1796875Q33.960899999999995,39.2343775,33.2578,39.9374975Q32.5547,40.6406275,31.5,40.6796875L27.5547,40.6796875L25.7578,38.9218775Q24.976599999999998,38.1796875,24,38.1796875Q22.98438,38.1796875,22.24219,38.9218775L20.48438,40.6796875L16.5,40.6796875ZM30.875,38.4921875Q31.7344,38.4140675,31.8125,37.5546875Q31.7344,36.6953075,30.875,36.6171875Q30.0156,36.6953075,29.9375,37.5546875Q30.0156,38.4140675,30.875,38.4921875Z" fill="#FFFFFF" fill-opacity="1" style="mix-blend-mode:passthrough"/></g></g></g></g></g></svg>