<svg xmlns="http://www.w3.org/2000/svg" xmlns:xlink="http://www.w3.org/1999/xlink" fill="none" version="1.1" width="105" height="110" viewBox="0 0 105 110"><defs><filter id="master_svg0_2_2192" filterUnits="objectBoundingBox" color-interpolation-filters="sRGB" x="-0.6862745098039216" y="-0.375" width="2.0588235294117645" height="1.9642857142857142"><feFlood flood-opacity="0" result="BackgroundImageFix"/><feColorMatrix in="SourceAlpha" type="matrix" values="0 0 0 0 0 0 0 0 0 0 0 0 0 0 0 0 0 0 127 0"/><feMorphology radius="-4" operator="dilate" in="SourceAlpha" result="effect1_dropShadow"/><feOffset dy="4" dx="0"/><feGaussianBlur stdDeviation="3"/><feColorMatrix type="matrix" values="0 0 0 0 0 0 0 0 0 0 0 0 0 0 0 0 0 0 0.10000000149011612 0"/><feBlend mode="normal" in2="BackgroundImageFix" result="effect1_dropShadow"/><feColorMatrix in="SourceAlpha" type="matrix" values="0 0 0 0 0 0 0 0 0 0 0 0 0 0 0 0 0 0 127 0"/><feMorphology radius="-3" operator="dilate" in="SourceAlpha" result="effect2_dropShadow"/><feOffset dy="10" dx="0"/><feGaussianBlur stdDeviation="7.5"/><feColorMatrix type="matrix" values="0 0 0 0 0 0 0 0 0 0 0 0 0 0 0 0 0 0 0.10000000149011612 0"/><feBlend mode="normal" in2="effect1_dropShadow" result="effect2_dropShadow"/><feBlend mode="normal" in="SourceGraphic" in2="effect2_dropShadow" result="shape"/></filter><clipPath id="master_svg1_2_2192"><rect x="27" y="17" width="51" height="56" rx="6"/></clipPath><clipPath id="master_svg2_2_1337"><rect x="39" y="33" width="24" height="24" rx="0"/></clipPath></defs><g filter="url(#master_svg0_2_2192)"><g clip-path="url(#master_svg1_2_2192)"><rect x="27" y="17" width="51" height="56" rx="6" fill="#000000" fill-opacity="1" style="mix-blend-mode:passthrough"/><rect x="27" y="17" width="51" height="56" rx="6" fill="#000000" fill-opacity="0.0010000000474974513" style="mix-blend-mode:passthrough"/><g><rect x="39" y="29" width="27" height="32" rx="0" fill="#000000" fill-opacity="0" style="mix-blend-mode:passthrough"/><g clip-path="url(#master_svg2_2_1337)"><g transform="matrix(1,0,0,-1,0,115.03125)"><g><path d="M49.9219,81.281225Q51,81.750025,52.125,81.281225L62.3438,76.546825Q62.9531,76.218725,63,75.515625Q62.9531,74.812525,62.3438,74.484425L52.0781,69.750025Q51,69.281225,49.875,69.750025L39.65625,74.484425Q39.046875,74.812525,39,75.515625Q39.046875,76.218725,39.65625,76.546825L49.9219,81.281225ZM59.8594,71.671825L62.3438,70.546825L59.8594,71.671825L62.3438,70.546825Q62.9531,70.218725,63,69.515625Q62.9531,68.812525,62.3438,68.484425L52.0781,63.750005Q51,63.281245,49.875,63.750005L39.65625,68.484425Q39.046875,68.812525,39,69.515625Q39.046875,70.218725,39.65625,70.546825L42.14062,71.671825L49.2656,68.390625Q51,67.640625,52.7344,68.390625L59.8594,71.671825ZM52.7344,62.390625L59.8594,65.671875L52.7344,62.390625L59.8594,65.671875L62.3438,64.546875Q62.9531,64.218745,63,63.515625Q62.9531,62.812505,62.3438,62.484375L52.0781,57.75Q51,57.28125,49.875,57.75L39.65625,62.484375Q39.046875,62.812505,39,63.515625Q39.046875,64.218745,39.65625,64.546875L42.14062,65.671875L49.2656,62.390625Q51,61.640625,52.7344,62.390625Z" fill="#FFFFFF" fill-opacity="1" style="mix-blend-mode:passthrough"/></g></g></g></g></g></g></svg>