<svg xmlns="http://www.w3.org/2000/svg" xmlns:xlink="http://www.w3.org/1999/xlink" fill="none" version="1.1" width="48" height="48" viewBox="0 0 48 48"><defs><clipPath id="master_svg0_2_1262"><rect x="11.5" y="14" width="25" height="20" rx="0"/></clipPath></defs><g><rect x="0" y="0" width="48" height="48" rx="24" fill="#000000" fill-opacity="1" style="mix-blend-mode:passthrough"/><g><rect x="11.5" y="10" width="25" height="28" rx="0" fill="#000000" fill-opacity="0" style="mix-blend-mode:passthrough"/><g clip-path="url(#master_svg0_2_1262)"><g transform="matrix(1,0,0,-1,0,68.859375)"><g><path d="M15.25,49.4296875Q15.25,50.7968875,15.91406,51.9296875Q16.57812,53.0624875,17.75,53.765587499999995Q18.92188,54.4296875,20.25,54.4296875Q21.5781,54.4296875,22.75,53.765587499999995Q23.9219,53.0624875,24.585900000000002,51.9296875Q25.25,50.7968875,25.25,49.4296875Q25.25,48.0624875,24.585900000000002,46.9296875Q23.9219,45.7968875,22.75,45.0937875Q21.5781,44.4296875,20.25,44.4296875Q18.92188,44.4296875,17.75,45.0937875Q16.57812,45.7968875,15.91406,46.9296875Q15.25,48.0624875,15.25,49.4296875ZM11.5,35.6015675Q11.578125,38.5312475,13.53125,40.5234375Q15.52344,42.4765675,18.45312,42.5546875L22.0469,42.5546875Q24.976599999999998,42.4765675,26.9688,40.5234375Q28.9219,38.5312475,29,35.6015675Q29,35.0937495,28.6484,34.7812495Q28.3359,34.4296875,27.8281,34.4296875L12.67188,34.4296875Q12.164062,34.4296875,11.851562,34.7812495Q11.5,35.0937495,11.5,35.6015675ZM31.1875,42.2421875L31.1875,44.7421875L31.1875,42.2421875L31.1875,44.7421875L28.6875,44.7421875Q27.8281,44.8202875,27.75,45.6796875Q27.8281,46.5390875,28.6875,46.6171875L31.1875,46.6171875L31.1875,49.1171875Q31.2656,49.9765875,32.125,50.0546875Q32.9844,49.9765875,33.0625,49.1171875L33.0625,46.6171875L35.5625,46.6171875Q36.4219,46.5390875,36.5,45.6796875Q36.4219,44.8202875,35.5625,44.7421875L33.0625,44.7421875L33.0625,42.2421875Q32.9844,41.3828075,32.125,41.3046875Q31.2656,41.3828075,31.1875,42.2421875Z" fill="#FFFFFF" fill-opacity="1" style="mix-blend-mode:passthrough"/></g></g></g></g></g></svg>